<?xml version="1.0" standalone="no"?>
<!DOCTYPE svg PUBLIC "-//W3C//DTD SVG 20010904//EN"
 "http://www.w3.org/TR/2001/REC-SVG-20010904/DTD/svg10.dtd">
<svg version="1.0" xmlns="http://www.w3.org/2000/svg"
 width="200.000000pt" height="200.000000pt" viewBox="0 0 200.000000 200.000000"
 preserveAspectRatio="xMidYMid meet">
<metadata>
Created by potrace 1.16, written by Peter Selinger 2001-2019
</metadata>
<g transform="translate(0.000000,200.000000) scale(0.100000,-0.100000)"
fill="#000000" stroke="none">
<path d="M453 1927 c-41 -39 -52 -56 -43 -62 9 -6 11 -4 5 5 -5 8 -4 11 3 6 6
-4 8 -14 5 -22 -3 -9 -9 -12 -12 -7 -12 17 -30 12 -51 -14 -14 -18 -17 -29 -9
-33 6 -4 10 -11 8 -16 -1 -5 8 -14 20 -20 12 -6 25 -15 29 -19 4 -5 0 -5 -8
-1 -8 4 -6 1 4 -8 10 -8 23 -13 29 -9 6 3 7 1 3 -5 -4 -6 15 -33 42 -62 27
-27 46 -53 43 -57 -3 -3 2 -3 11 0 10 3 20 1 24 -5 4 -7 3 -8 -4 -4 -7 4 -12
2 -12 -4 0 -6 10 -10 22 -8 16 2 22 -3 23 -19 2 -21 72 -103 88 -103 5 0 6 4
3 8 -7 11 31 8 41 -3 5 -4 3 -5 -3 -2 -22 13 -35 -17 -18 -41 18 -26 34 -29
34 -6 0 8 -4 13 -9 10 -5 -3 -15 2 -22 12 -12 15 -12 16 1 6 8 -6 28 -11 43
-10 26 2 27 0 11 -11 -13 -10 -15 -16 -7 -24 6 -6 9 -17 7 -23 -7 -18 172
-190 188 -180 11 6 11 5 0 -8 -11 -14 -6 -22 36 -59 27 -24 57 -56 66 -70 15
-23 15 -28 1 -39 -8 -7 -12 -17 -8 -23 3 -6 1 -7 -5 -3 -6 3 -16 -3 -22 -15
-7 -11 -34 -43 -61 -70 -31 -30 -44 -51 -37 -55 7 -5 8 -2 3 7 -5 8 -4 11 0 7
12 -11 16 -58 5 -58 -5 0 -12 5 -15 10 -4 6 -11 7 -17 4 -7 -4 -8 -2 -4 5 4 6
12 8 18 5 7 -5 8 -2 4 5 -13 21 -48 -17 -36 -39 7 -13 5 -21 -5 -30 -11 -9
-12 -17 -4 -34 9 -18 8 -18 -9 3 -18 22 -42 22 -42 0 0 -6 5 -7 12 -3 7 4 8 3
4 -5 -4 -6 -12 -9 -17 -5 -11 6 -51 -30 -43 -39 2 -2 -3 -10 -13 -18 -15 -12
-16 -12 -9 1 4 8 -1 4 -11 -10 -10 -13 -26 -31 -35 -39 -13 -12 -15 -19 -6
-35 11 -20 10 -20 -7 -6 -17 14 -18 13 -12 -3 4 -12 3 -16 -4 -11 -12 7 -34
-15 -87 -84 -19 -25 -50 -61 -68 -80 -33 -34 -37 -69 -6 -57 12 4 13 3 2 -9
-11 -14 -14 -14 -27 -1 -17 17 -37 10 -29 -10 3 -8 -3 -17 -14 -20 -10 -3 -31
-22 -46 -43 -15 -20 -34 -41 -42 -45 -11 -7 -11 -12 3 -27 12 -14 13 -20 4
-26 -7 -4 -10 -3 -5 4 3 6 1 14 -5 17 -12 8 -81 -54 -74 -65 2 -4 -3 -16 -11
-26 -9 -10 -13 -12 -9 -4 4 8 -3 4 -14 -9 -20 -23 -29 -47 -13 -37 4 2 8 -4 8
-14 0 -10 -4 -16 -8 -14 -4 3 -8 0 -8 -5 0 -8 245 -11 805 -11 l805 0 0 104
c0 57 3 118 6 135 l7 31 -527 0 c-419 0 -526 -3 -520 -12 6 -10 4 -10 -8 0
-13 10 -18 10 -24 1 -5 -8 -3 -9 6 -4 9 5 11 4 6 -4 -10 -15 -29 -3 -22 15 3
8 1 14 -4 14 -6 0 -10 -5 -10 -11 0 -5 -5 -7 -11 -3 -8 5 -8 9 1 14 9 6 9 9
-1 14 -8 3 -3 3 10 0 16 -4 21 -2 17 5 -5 7 -1 9 8 5 11 -4 16 0 16 15 0 12 6
21 14 21 7 0 19 6 25 14 10 11 9 16 -5 24 -11 6 -13 11 -5 16 6 4 11 2 11 -4
0 -8 6 -8 20 0 15 8 19 18 16 33 -3 12 -3 16 0 10 8 -18 25 -16 18 2 -4 8 1
17 10 21 9 3 14 10 11 14 -3 4 1 7 8 6 7 0 45 35 84 80 55 61 69 84 61 92 -9
9 -9 15 0 24 8 8 8 15 1 24 -7 8 -6 14 2 20 7 4 9 3 5 -4 -3 -6 2 -15 12 -21
22 -12 68 19 59 41 -3 8 -1 21 5 29 8 11 9 10 4 -4 -3 -9 -2 -17 3 -17 10 0
41 34 41 45 0 4 10 16 22 26 11 11 18 19 15 19 -3 0 12 18 34 40 36 37 53 70
27 54 -7 -4 -8 -3 -4 5 4 6 11 9 15 6 8 -4 121 107 121 120 0 3 -4 4 -8 1 -4
-3 -19 13 -32 35 -14 21 -33 42 -42 45 -10 3 -18 8 -18 12 0 14 -51 62 -60 57
-5 -3 -11 -1 -15 4 -3 6 -13 8 -23 5 -14 -5 -14 -4 -2 4 8 6 18 8 23 5 5 -3 7
0 5 8 -3 8 -12 13 -21 13 -9 -1 -15 2 -12 6 2 4 -7 20 -21 36 -18 21 -23 24
-18 9 4 -11 5 -18 3 -15 -36 43 -42 52 -29 45 8 -4 -11 17 -43 48 -32 32 -56
57 -53 57 3 0 -7 12 -22 27 -15 15 -33 26 -39 25 -7 -2 -10 3 -7 11 6 16 -13
34 -38 36 -39 3 -45 5 -45 17 0 9 7 8 24 -3 31 -20 30 0 -2 25 -13 11 -22 22
-19 24 2 3 -21 26 -52 52 -31 25 -52 46 -48 46 5 0 1 5 -9 11 -9 6 -15 15 -11
20 3 5 0 8 -8 7 -7 -2 -12 2 -11 9 2 7 -4 10 -13 6 -13 -5 -12 -9 6 -28 14
-15 18 -25 11 -30 -7 -3 -11 -3 -10 2 4 21 -2 25 -14 9 -11 -16 -13 -14 -12
16 2 34 -11 61 -25 53 -5 -3 -12 0 -16 6 -4 8 -3 9 4 5 7 -4 12 -2 12 5 0 6 9
1 20 -12 10 -13 19 -20 20 -16 0 4 -12 20 -26 35 -15 15 -23 20 -20 12 5 -9 2
-8 -7 3 -19 23 -25 22 -22 -8 2 -14 -1 -27 -5 -30 -5 -3 -7 6 -4 19 2 14 0 27
-5 30 -5 3 -7 15 -4 25 5 20 -28 46 -42 33 -5 -4 -5 -2 -2 4 10 18 -45 76 -75
77 -14 1 -24 6 -21 10 3 5 12 6 20 3 8 -3 11 -1 8 4 -11 18 -26 10 -82 -43z"/>
</g>
</svg>
